<mxfile host="app.diagrams.net" modified="2024-05-21T11:59:39.516Z" agent="Mozilla/5.0 (Windows NT 10.0; Win64; x64) AppleWebKit/537.36 (KHTML, like Gecko) Chrome/124.0.0.0 Safari/537.36" etag="hcUn3KD834kn__eo1E_q" version="24.4.4" type="device">
  <diagram id="R2lEEEUBdFMjLlhIrx00" name="Page-1">
    <mxGraphModel dx="2173" dy="1922" grid="1" gridSize="10" guides="1" tooltips="1" connect="1" arrows="1" fold="1" page="1" pageScale="1" pageWidth="850" pageHeight="1100" background="#ffffff" math="0" shadow="0" extFonts="Permanent Marker^https://fonts.googleapis.com/css?family=Permanent+Marker">
      <root>
        <mxCell id="0" />
        <mxCell id="1" parent="0" />
        <mxCell id="sHEva1wJQdfOUSazV_UW-121" value="Cab Booking ER" style="text;html=1;align=center;verticalAlign=middle;resizable=0;points=[];autosize=1;strokeColor=none;fillColor=none;fontFamily=Helvetica;fontSize=52;fontColor=default;labelBackgroundColor=default;fontStyle=1" parent="1" vertex="1">
          <mxGeometry x="350" y="-620" width="410" height="80" as="geometry" />
        </mxCell>
        <mxCell id="kHbpe7xJEAqrBtz3RoCf-14" style="rounded=0;orthogonalLoop=1;jettySize=auto;html=1;strokeColor=default;align=center;verticalAlign=middle;fontFamily=Helvetica;fontSize=11;fontColor=default;labelBackgroundColor=default;endArrow=none;endFill=0;exitX=0.827;exitY=1.011;exitDx=0;exitDy=0;exitPerimeter=0;" parent="1" source="sHEva1wJQdfOUSazV_UW-6" target="kHbpe7xJEAqrBtz3RoCf-8" edge="1">
          <mxGeometry relative="1" as="geometry">
            <mxPoint x="319.7709923664122" y="259.6604938271605" as="sourcePoint" />
          </mxGeometry>
        </mxCell>
        <mxCell id="sHEva1wJQdfOUSazV_UW-10" style="rounded=0;orthogonalLoop=1;jettySize=auto;html=1;endArrow=none;endFill=0;entryX=0;entryY=0.5;entryDx=0;entryDy=0;" parent="1" source="kHbpe7xJEAqrBtz3RoCf-6" target="sHEva1wJQdfOUSazV_UW-9" edge="1">
          <mxGeometry relative="1" as="geometry" />
        </mxCell>
        <mxCell id="sHEva1wJQdfOUSazV_UW-109" value="M" style="edgeLabel;html=1;align=center;verticalAlign=middle;resizable=0;points=[];fontFamily=Helvetica;fontSize=11;fontColor=default;labelBackgroundColor=default;" parent="sHEva1wJQdfOUSazV_UW-10" vertex="1" connectable="0">
          <mxGeometry x="0.825" relative="1" as="geometry">
            <mxPoint as="offset" />
          </mxGeometry>
        </mxCell>
        <mxCell id="sHEva1wJQdfOUSazV_UW-62" style="edgeStyle=none;rounded=0;orthogonalLoop=1;jettySize=auto;html=1;entryX=0.5;entryY=1;entryDx=0;entryDy=0;strokeColor=default;align=center;verticalAlign=middle;fontFamily=Helvetica;fontSize=11;fontColor=default;labelBackgroundColor=default;endArrow=none;endFill=0;" parent="1" source="kHbpe7xJEAqrBtz3RoCf-6" target="sHEva1wJQdfOUSazV_UW-59" edge="1">
          <mxGeometry relative="1" as="geometry" />
        </mxCell>
        <mxCell id="4ZL2Wh8XsxxKd8x57gcR-6" style="edgeStyle=none;rounded=0;orthogonalLoop=1;jettySize=auto;html=1;entryX=0;entryY=0.5;entryDx=0;entryDy=0;strokeColor=default;align=center;verticalAlign=middle;fontFamily=Helvetica;fontSize=11;fontColor=default;labelBackgroundColor=default;endArrow=none;endFill=0;" edge="1" parent="1" source="kHbpe7xJEAqrBtz3RoCf-6" target="4ZL2Wh8XsxxKd8x57gcR-5">
          <mxGeometry relative="1" as="geometry" />
        </mxCell>
        <mxCell id="4ZL2Wh8XsxxKd8x57gcR-8" value="M" style="edgeLabel;html=1;align=center;verticalAlign=middle;resizable=0;points=[];fontFamily=Helvetica;fontSize=11;fontColor=default;labelBackgroundColor=default;" vertex="1" connectable="0" parent="4ZL2Wh8XsxxKd8x57gcR-6">
          <mxGeometry x="0.7515" y="-2" relative="1" as="geometry">
            <mxPoint as="offset" />
          </mxGeometry>
        </mxCell>
        <mxCell id="4ZL2Wh8XsxxKd8x57gcR-13" style="edgeStyle=none;rounded=0;orthogonalLoop=1;jettySize=auto;html=1;entryX=0.5;entryY=0;entryDx=0;entryDy=0;strokeColor=default;align=center;verticalAlign=middle;fontFamily=Helvetica;fontSize=11;fontColor=default;labelBackgroundColor=default;endArrow=none;endFill=0;" edge="1" parent="1" source="kHbpe7xJEAqrBtz3RoCf-6" target="4ZL2Wh8XsxxKd8x57gcR-12">
          <mxGeometry relative="1" as="geometry" />
        </mxCell>
        <mxCell id="4ZL2Wh8XsxxKd8x57gcR-15" value="M" style="edgeLabel;html=1;align=center;verticalAlign=middle;resizable=0;points=[];fontFamily=Helvetica;fontSize=11;fontColor=default;labelBackgroundColor=default;" vertex="1" connectable="0" parent="4ZL2Wh8XsxxKd8x57gcR-13">
          <mxGeometry x="0.7184" relative="1" as="geometry">
            <mxPoint as="offset" />
          </mxGeometry>
        </mxCell>
        <mxCell id="kHbpe7xJEAqrBtz3RoCf-6" value="Passenger" style="whiteSpace=wrap;html=1;align=center;" parent="1" vertex="1">
          <mxGeometry x="416.8702290076335" y="6.79012345679007" width="121.3740458015267" height="49.382716049382715" as="geometry" />
        </mxCell>
        <mxCell id="sHEva1wJQdfOUSazV_UW-44" value="" style="edgeStyle=none;rounded=0;orthogonalLoop=1;jettySize=auto;html=1;strokeColor=default;align=center;verticalAlign=middle;fontFamily=Helvetica;fontSize=11;fontColor=default;labelBackgroundColor=default;endArrow=none;endFill=0;" parent="1" source="kHbpe7xJEAqrBtz3RoCf-7" target="sHEva1wJQdfOUSazV_UW-43" edge="1">
          <mxGeometry relative="1" as="geometry" />
        </mxCell>
        <mxCell id="sHEva1wJQdfOUSazV_UW-45" value="" style="edgeStyle=none;rounded=0;orthogonalLoop=1;jettySize=auto;html=1;strokeColor=default;align=center;verticalAlign=middle;fontFamily=Helvetica;fontSize=11;fontColor=default;labelBackgroundColor=default;endArrow=none;endFill=0;" parent="1" source="kHbpe7xJEAqrBtz3RoCf-7" target="sHEva1wJQdfOUSazV_UW-33" edge="1">
          <mxGeometry relative="1" as="geometry" />
        </mxCell>
        <mxCell id="sHEva1wJQdfOUSazV_UW-47" value="" style="edgeStyle=none;rounded=0;orthogonalLoop=1;jettySize=auto;html=1;strokeColor=default;align=center;verticalAlign=middle;fontFamily=Helvetica;fontSize=11;fontColor=default;labelBackgroundColor=default;endArrow=none;endFill=0;" parent="1" source="kHbpe7xJEAqrBtz3RoCf-7" target="sHEva1wJQdfOUSazV_UW-46" edge="1">
          <mxGeometry relative="1" as="geometry" />
        </mxCell>
        <mxCell id="sHEva1wJQdfOUSazV_UW-49" value="" style="edgeStyle=none;rounded=0;orthogonalLoop=1;jettySize=auto;html=1;strokeColor=default;align=center;verticalAlign=middle;fontFamily=Helvetica;fontSize=11;fontColor=default;labelBackgroundColor=default;endArrow=none;endFill=0;" parent="1" source="kHbpe7xJEAqrBtz3RoCf-7" target="sHEva1wJQdfOUSazV_UW-48" edge="1">
          <mxGeometry relative="1" as="geometry" />
        </mxCell>
        <mxCell id="sHEva1wJQdfOUSazV_UW-51" value="" style="edgeStyle=none;rounded=0;orthogonalLoop=1;jettySize=auto;html=1;strokeColor=default;align=center;verticalAlign=middle;fontFamily=Helvetica;fontSize=11;fontColor=default;labelBackgroundColor=default;endArrow=none;endFill=0;" parent="1" source="kHbpe7xJEAqrBtz3RoCf-7" target="sHEva1wJQdfOUSazV_UW-50" edge="1">
          <mxGeometry relative="1" as="geometry" />
        </mxCell>
        <mxCell id="kHbpe7xJEAqrBtz3RoCf-7" value="User" style="whiteSpace=wrap;html=1;align=center;" parent="1" vertex="1">
          <mxGeometry x="-55.801526717557266" y="206.41975308641975" width="121.3740458015267" height="49.382716049382715" as="geometry" />
        </mxCell>
        <mxCell id="sHEva1wJQdfOUSazV_UW-16" style="edgeStyle=none;rounded=0;orthogonalLoop=1;jettySize=auto;html=1;strokeColor=default;align=center;verticalAlign=middle;fontFamily=Helvetica;fontSize=11;fontColor=default;labelBackgroundColor=default;endArrow=none;endFill=0;" parent="1" source="kHbpe7xJEAqrBtz3RoCf-8" target="sHEva1wJQdfOUSazV_UW-15" edge="1">
          <mxGeometry relative="1" as="geometry" />
        </mxCell>
        <mxCell id="sHEva1wJQdfOUSazV_UW-107" value="M" style="edgeLabel;html=1;align=center;verticalAlign=middle;resizable=0;points=[];fontFamily=Helvetica;fontSize=11;fontColor=default;labelBackgroundColor=default;" parent="sHEva1wJQdfOUSazV_UW-16" vertex="1" connectable="0">
          <mxGeometry x="0.8588" y="-2" relative="1" as="geometry">
            <mxPoint x="-3" y="-2" as="offset" />
          </mxGeometry>
        </mxCell>
        <mxCell id="sHEva1wJQdfOUSazV_UW-54" style="edgeStyle=none;rounded=0;orthogonalLoop=1;jettySize=auto;html=1;strokeColor=default;align=center;verticalAlign=middle;fontFamily=Helvetica;fontSize=11;fontColor=default;labelBackgroundColor=default;endArrow=none;endFill=0;" parent="1" source="kHbpe7xJEAqrBtz3RoCf-8" target="sHEva1wJQdfOUSazV_UW-53" edge="1">
          <mxGeometry relative="1" as="geometry" />
        </mxCell>
        <mxCell id="sHEva1wJQdfOUSazV_UW-56" value="" style="edgeStyle=none;rounded=0;orthogonalLoop=1;jettySize=auto;html=1;strokeColor=default;align=center;verticalAlign=middle;fontFamily=Helvetica;fontSize=11;fontColor=default;labelBackgroundColor=default;endArrow=none;endFill=0;" parent="1" source="kHbpe7xJEAqrBtz3RoCf-8" target="sHEva1wJQdfOUSazV_UW-55" edge="1">
          <mxGeometry relative="1" as="geometry" />
        </mxCell>
        <mxCell id="kHbpe7xJEAqrBtz3RoCf-8" value="Driver" style="whiteSpace=wrap;html=1;align=center;" parent="1" vertex="1">
          <mxGeometry x="416.8702290076335" y="532.1320987654321" width="121.3740458015267" height="49.382716049382715" as="geometry" />
        </mxCell>
        <mxCell id="kHbpe7xJEAqrBtz3RoCf-12" style="rounded=0;orthogonalLoop=1;jettySize=auto;html=1;endArrow=none;endFill=0;exitX=0.058;exitY=0.168;exitDx=0;exitDy=0;exitPerimeter=0;" parent="1" source="sHEva1wJQdfOUSazV_UW-6" target="kHbpe7xJEAqrBtz3RoCf-7" edge="1">
          <mxGeometry relative="1" as="geometry">
            <mxPoint x="211.2213740458015" y="258.7073347857662" as="sourcePoint" />
          </mxGeometry>
        </mxCell>
        <mxCell id="kHbpe7xJEAqrBtz3RoCf-15" style="rounded=0;orthogonalLoop=1;jettySize=auto;html=1;strokeColor=default;align=center;verticalAlign=middle;fontFamily=Helvetica;fontSize=11;fontColor=default;labelBackgroundColor=default;endArrow=none;endFill=0;entryX=0.689;entryY=0.371;entryDx=0;entryDy=0;entryPerimeter=0;" parent="1" source="kHbpe7xJEAqrBtz3RoCf-6" target="sHEva1wJQdfOUSazV_UW-5" edge="1">
          <mxGeometry relative="1" as="geometry">
            <mxPoint x="307.6335877862595" y="212.5925925925926" as="targetPoint" />
          </mxGeometry>
        </mxCell>
        <mxCell id="sHEva1wJQdfOUSazV_UW-4" value="" style="group" parent="1" vertex="1" connectable="0">
          <mxGeometry x="193.0152671755725" y="200.24691358024688" width="84.96183206106869" height="61.72839506172839" as="geometry" />
        </mxCell>
        <mxCell id="sHEva1wJQdfOUSazV_UW-5" value="" style="verticalLabelPosition=bottom;verticalAlign=top;html=1;shape=mxgraph.basic.acute_triangle;dx=0.5;" parent="sHEva1wJQdfOUSazV_UW-4" vertex="1">
          <mxGeometry width="84.96183206106869" height="61.72839506172839" as="geometry" />
        </mxCell>
        <mxCell id="sHEva1wJQdfOUSazV_UW-6" value="ISA" style="text;html=1;align=center;verticalAlign=middle;resizable=0;points=[];autosize=1;strokeColor=none;fillColor=none;" parent="sHEva1wJQdfOUSazV_UW-4" vertex="1">
          <mxGeometry x="18.206106870229007" y="24.691358024691358" width="40" height="30" as="geometry" />
        </mxCell>
        <mxCell id="sHEva1wJQdfOUSazV_UW-9" value="Books" style="shape=rhombus;perimeter=rhombusPerimeter;whiteSpace=wrap;html=1;align=center;" parent="1" vertex="1">
          <mxGeometry x="708.172748091603" y="-91.9755555555556" width="145.64885496183206" height="74.07407407407408" as="geometry" />
        </mxCell>
        <mxCell id="sHEva1wJQdfOUSazV_UW-25" style="edgeStyle=none;rounded=0;orthogonalLoop=1;jettySize=auto;html=1;entryX=0.5;entryY=0;entryDx=0;entryDy=0;strokeColor=default;align=center;verticalAlign=middle;fontFamily=Helvetica;fontSize=11;fontColor=default;labelBackgroundColor=default;endArrow=none;endFill=0;exitX=0.5;exitY=1;exitDx=0;exitDy=0;" parent="1" source="sHEva1wJQdfOUSazV_UW-12" target="sHEva1wJQdfOUSazV_UW-22" edge="1">
          <mxGeometry relative="1" as="geometry" />
        </mxCell>
        <mxCell id="sHEva1wJQdfOUSazV_UW-111" value="1" style="edgeLabel;html=1;align=center;verticalAlign=middle;resizable=0;points=[];fontFamily=Helvetica;fontSize=11;fontColor=default;labelBackgroundColor=default;" parent="sHEva1wJQdfOUSazV_UW-25" vertex="1" connectable="0">
          <mxGeometry x="-0.6571" y="-1" relative="1" as="geometry">
            <mxPoint y="-7" as="offset" />
          </mxGeometry>
        </mxCell>
        <mxCell id="sHEva1wJQdfOUSazV_UW-29" value="" style="edgeStyle=none;rounded=0;orthogonalLoop=1;jettySize=auto;html=1;strokeColor=default;align=center;verticalAlign=middle;fontFamily=Helvetica;fontSize=11;fontColor=default;labelBackgroundColor=default;endArrow=none;endFill=0;" parent="1" source="sHEva1wJQdfOUSazV_UW-12" target="sHEva1wJQdfOUSazV_UW-26" edge="1">
          <mxGeometry relative="1" as="geometry" />
        </mxCell>
        <mxCell id="sHEva1wJQdfOUSazV_UW-112" value="1" style="edgeLabel;html=1;align=center;verticalAlign=middle;resizable=0;points=[];fontFamily=Helvetica;fontSize=11;fontColor=default;labelBackgroundColor=default;" parent="sHEva1wJQdfOUSazV_UW-29" vertex="1" connectable="0">
          <mxGeometry x="-0.6833" y="-1" relative="1" as="geometry">
            <mxPoint x="-1" y="9" as="offset" />
          </mxGeometry>
        </mxCell>
        <mxCell id="sHEva1wJQdfOUSazV_UW-12" value="Chosen" style="shape=rhombus;perimeter=rhombusPerimeter;whiteSpace=wrap;html=1;align=center;" parent="1" vertex="1">
          <mxGeometry x="1011.6030534351144" y="269.9982716049382" width="145.64885496183206" height="74.07407407407408" as="geometry" />
        </mxCell>
        <mxCell id="sHEva1wJQdfOUSazV_UW-24" value="" style="edgeStyle=none;rounded=0;orthogonalLoop=1;jettySize=auto;html=1;strokeColor=default;align=center;verticalAlign=middle;fontFamily=Helvetica;fontSize=11;fontColor=default;labelBackgroundColor=default;endArrow=none;endFill=0;entryX=0;entryY=0.5;entryDx=0;entryDy=0;" parent="1" source="sHEva1wJQdfOUSazV_UW-15" target="sHEva1wJQdfOUSazV_UW-22" edge="1">
          <mxGeometry relative="1" as="geometry" />
        </mxCell>
        <mxCell id="sHEva1wJQdfOUSazV_UW-108" value="1" style="edgeLabel;html=1;align=center;verticalAlign=middle;resizable=0;points=[];fontFamily=Helvetica;fontSize=11;fontColor=default;labelBackgroundColor=default;" parent="sHEva1wJQdfOUSazV_UW-24" vertex="1" connectable="0">
          <mxGeometry x="-0.8372" y="2" relative="1" as="geometry">
            <mxPoint y="2" as="offset" />
          </mxGeometry>
        </mxCell>
        <mxCell id="sHEva1wJQdfOUSazV_UW-76" value="" style="edgeStyle=none;rounded=0;orthogonalLoop=1;jettySize=auto;html=1;strokeColor=default;align=center;verticalAlign=middle;fontFamily=Helvetica;fontSize=11;fontColor=default;labelBackgroundColor=default;endArrow=none;endFill=0;" parent="1" source="sHEva1wJQdfOUSazV_UW-15" target="sHEva1wJQdfOUSazV_UW-75" edge="1">
          <mxGeometry relative="1" as="geometry" />
        </mxCell>
        <mxCell id="sHEva1wJQdfOUSazV_UW-78" value="" style="edgeStyle=none;rounded=0;orthogonalLoop=1;jettySize=auto;html=1;strokeColor=default;align=center;verticalAlign=middle;fontFamily=Helvetica;fontSize=11;fontColor=default;labelBackgroundColor=default;endArrow=none;endFill=0;" parent="1" source="sHEva1wJQdfOUSazV_UW-15" target="sHEva1wJQdfOUSazV_UW-77" edge="1">
          <mxGeometry relative="1" as="geometry" />
        </mxCell>
        <mxCell id="sHEva1wJQdfOUSazV_UW-15" value="Owns" style="shape=rhombus;perimeter=rhombusPerimeter;whiteSpace=wrap;html=1;align=center;" parent="1" vertex="1">
          <mxGeometry x="744.5801526717556" y="519.7864197530864" width="145.64885496183206" height="74.07407407407408" as="geometry" />
        </mxCell>
        <mxCell id="sHEva1wJQdfOUSazV_UW-102" style="edgeStyle=none;rounded=0;orthogonalLoop=1;jettySize=auto;html=1;strokeColor=default;align=center;verticalAlign=middle;fontFamily=Helvetica;fontSize=11;fontColor=default;labelBackgroundColor=default;endArrow=none;endFill=0;" parent="1" source="sHEva1wJQdfOUSazV_UW-22" target="sHEva1wJQdfOUSazV_UW-101" edge="1">
          <mxGeometry relative="1" as="geometry" />
        </mxCell>
        <mxCell id="sHEva1wJQdfOUSazV_UW-104" style="edgeStyle=none;rounded=0;orthogonalLoop=1;jettySize=auto;html=1;strokeColor=default;align=center;verticalAlign=middle;fontFamily=Helvetica;fontSize=11;fontColor=default;labelBackgroundColor=default;endArrow=none;endFill=0;" parent="1" source="sHEva1wJQdfOUSazV_UW-22" target="sHEva1wJQdfOUSazV_UW-103" edge="1">
          <mxGeometry relative="1" as="geometry" />
        </mxCell>
        <mxCell id="sHEva1wJQdfOUSazV_UW-106" style="edgeStyle=none;rounded=0;orthogonalLoop=1;jettySize=auto;html=1;entryX=0.079;entryY=0.215;entryDx=0;entryDy=0;strokeColor=default;align=center;verticalAlign=middle;fontFamily=Helvetica;fontSize=11;fontColor=default;labelBackgroundColor=default;endArrow=none;endFill=0;entryPerimeter=0;" parent="1" source="sHEva1wJQdfOUSazV_UW-22" target="sHEva1wJQdfOUSazV_UW-105" edge="1">
          <mxGeometry relative="1" as="geometry" />
        </mxCell>
        <mxCell id="sHEva1wJQdfOUSazV_UW-22" value="Cab" style="shape=ext;margin=3;double=1;whiteSpace=wrap;html=1;align=center;fontFamily=Helvetica;fontSize=11;fontColor=default;labelBackgroundColor=default;" parent="1" vertex="1">
          <mxGeometry x="1023.740458015267" y="532.1320987654321" width="121.3740458015267" height="49.382716049382715" as="geometry" />
        </mxCell>
        <mxCell id="sHEva1wJQdfOUSazV_UW-30" value="" style="edgeStyle=none;rounded=0;orthogonalLoop=1;jettySize=auto;html=1;strokeColor=default;align=center;verticalAlign=middle;fontFamily=Helvetica;fontSize=11;fontColor=default;labelBackgroundColor=default;endArrow=none;endFill=0;entryX=1;entryY=0.5;entryDx=0;entryDy=0;" parent="1" source="sHEva1wJQdfOUSazV_UW-26" target="sHEva1wJQdfOUSazV_UW-9" edge="1">
          <mxGeometry relative="1" as="geometry" />
        </mxCell>
        <mxCell id="sHEva1wJQdfOUSazV_UW-110" value="1" style="edgeLabel;html=1;align=center;verticalAlign=middle;resizable=0;points=[];fontFamily=Helvetica;fontSize=11;fontColor=default;labelBackgroundColor=default;" parent="sHEva1wJQdfOUSazV_UW-30" vertex="1" connectable="0">
          <mxGeometry x="0.8289" relative="1" as="geometry">
            <mxPoint as="offset" />
          </mxGeometry>
        </mxCell>
        <mxCell id="sHEva1wJQdfOUSazV_UW-90" value="" style="edgeStyle=none;rounded=0;orthogonalLoop=1;jettySize=auto;html=1;strokeColor=default;align=center;verticalAlign=middle;fontFamily=Helvetica;fontSize=11;fontColor=default;labelBackgroundColor=default;endArrow=none;endFill=0;entryX=0;entryY=0.5;entryDx=0;entryDy=0;" parent="1" source="sHEva1wJQdfOUSazV_UW-26" target="sHEva1wJQdfOUSazV_UW-117" edge="1">
          <mxGeometry relative="1" as="geometry">
            <mxPoint x="1292.2724717286717" y="50.700713491628846" as="targetPoint" />
          </mxGeometry>
        </mxCell>
        <mxCell id="sHEva1wJQdfOUSazV_UW-92" style="edgeStyle=none;rounded=0;orthogonalLoop=1;jettySize=auto;html=1;entryX=0.44;entryY=0.983;entryDx=0;entryDy=0;strokeColor=default;align=center;verticalAlign=middle;fontFamily=Helvetica;fontSize=11;fontColor=default;labelBackgroundColor=default;endArrow=none;endFill=0;entryPerimeter=0;" parent="1" source="sHEva1wJQdfOUSazV_UW-26" target="sHEva1wJQdfOUSazV_UW-91" edge="1">
          <mxGeometry relative="1" as="geometry" />
        </mxCell>
        <mxCell id="sHEva1wJQdfOUSazV_UW-26" value="Ride" style="shape=ext;margin=3;double=1;whiteSpace=wrap;html=1;align=center;fontFamily=Helvetica;fontSize=11;fontColor=default;labelBackgroundColor=default;" parent="1" vertex="1">
          <mxGeometry x="1023.740458015267" y="6.79012345679007" width="121.3740458015267" height="49.382716049382715" as="geometry" />
        </mxCell>
        <mxCell id="sHEva1wJQdfOUSazV_UW-32" style="edgeStyle=none;rounded=0;orthogonalLoop=1;jettySize=auto;html=1;strokeColor=default;align=center;verticalAlign=middle;fontFamily=Helvetica;fontSize=11;fontColor=default;labelBackgroundColor=default;endArrow=none;endFill=0;" parent="1" source="kHbpe7xJEAqrBtz3RoCf-7" target="sHEva1wJQdfOUSazV_UW-37" edge="1">
          <mxGeometry relative="1" as="geometry">
            <mxPoint x="-26.30763358778634" y="114.07407407407408" as="targetPoint" />
          </mxGeometry>
        </mxCell>
        <mxCell id="sHEva1wJQdfOUSazV_UW-33" value="Phone number" style="ellipse;whiteSpace=wrap;html=1;align=center;fontFamily=Helvetica;fontSize=11;fontColor=default;labelBackgroundColor=default;" parent="1" vertex="1">
          <mxGeometry x="-177.17557251908397" y="323.7037037037037" width="121.3740458015267" height="49.382716049382715" as="geometry" />
        </mxCell>
        <mxCell id="sHEva1wJQdfOUSazV_UW-35" value="&lt;b&gt;&lt;u&gt;UID&lt;/u&gt;&lt;/b&gt;" style="ellipse;whiteSpace=wrap;html=1;align=center;fontFamily=Helvetica;fontSize=11;fontColor=default;labelBackgroundColor=default;" parent="1" vertex="1">
          <mxGeometry x="-213.58778625954199" y="113.82716049382714" width="121.3740458015267" height="49.382716049382715" as="geometry" />
        </mxCell>
        <mxCell id="sHEva1wJQdfOUSazV_UW-36" style="edgeStyle=none;rounded=0;orthogonalLoop=1;jettySize=auto;html=1;entryX=0.803;entryY=0.842;entryDx=0;entryDy=0;entryPerimeter=0;strokeColor=default;align=center;verticalAlign=middle;fontFamily=Helvetica;fontSize=11;fontColor=default;labelBackgroundColor=default;endArrow=none;endFill=0;" parent="1" source="kHbpe7xJEAqrBtz3RoCf-7" target="sHEva1wJQdfOUSazV_UW-35" edge="1">
          <mxGeometry relative="1" as="geometry" />
        </mxCell>
        <mxCell id="sHEva1wJQdfOUSazV_UW-37" value="Name" style="ellipse;shape=doubleEllipse;margin=3;whiteSpace=wrap;html=1;align=center;fontFamily=Helvetica;fontSize=11;fontColor=default;labelBackgroundColor=default;" parent="1" vertex="1">
          <mxGeometry x="-92.21374045801528" y="64.4444444444444" width="121.3740458015267" height="49.382716049382715" as="geometry" />
        </mxCell>
        <mxCell id="sHEva1wJQdfOUSazV_UW-38" value="First Name" style="ellipse;whiteSpace=wrap;html=1;align=center;fontFamily=Helvetica;fontSize=11;fontColor=default;labelBackgroundColor=default;" parent="1" vertex="1">
          <mxGeometry x="-189.31297709923666" y="-34.320987654321016" width="121.3740458015267" height="49.382716049382715" as="geometry" />
        </mxCell>
        <mxCell id="sHEva1wJQdfOUSazV_UW-39" value="Last Name" style="ellipse;whiteSpace=wrap;html=1;align=center;fontFamily=Helvetica;fontSize=11;fontColor=default;labelBackgroundColor=default;" parent="1" vertex="1">
          <mxGeometry x="-19.38931297709925" y="-34.320987654321016" width="121.3740458015267" height="49.382716049382715" as="geometry" />
        </mxCell>
        <mxCell id="sHEva1wJQdfOUSazV_UW-41" style="edgeStyle=none;rounded=0;orthogonalLoop=1;jettySize=auto;html=1;entryX=0.611;entryY=1.05;entryDx=0;entryDy=0;entryPerimeter=0;strokeColor=default;align=center;verticalAlign=middle;fontFamily=Helvetica;fontSize=11;fontColor=default;labelBackgroundColor=default;endArrow=none;endFill=0;" parent="1" source="sHEva1wJQdfOUSazV_UW-37" target="sHEva1wJQdfOUSazV_UW-38" edge="1">
          <mxGeometry relative="1" as="geometry" />
        </mxCell>
        <mxCell id="sHEva1wJQdfOUSazV_UW-42" style="edgeStyle=none;rounded=0;orthogonalLoop=1;jettySize=auto;html=1;entryX=0.607;entryY=0.946;entryDx=0;entryDy=0;entryPerimeter=0;strokeColor=default;align=center;verticalAlign=middle;fontFamily=Helvetica;fontSize=11;fontColor=default;labelBackgroundColor=default;endArrow=none;endFill=0;" parent="1" source="sHEva1wJQdfOUSazV_UW-37" target="sHEva1wJQdfOUSazV_UW-39" edge="1">
          <mxGeometry relative="1" as="geometry" />
        </mxCell>
        <mxCell id="sHEva1wJQdfOUSazV_UW-43" value="Date Of Birth" style="ellipse;whiteSpace=wrap;html=1;align=center;fontFamily=Helvetica;fontSize=11;fontColor=default;labelBackgroundColor=default;" parent="1" vertex="1">
          <mxGeometry x="-250" y="212.5925925925926" width="121.3740458015267" height="49.382716049382715" as="geometry" />
        </mxCell>
        <mxCell id="sHEva1wJQdfOUSazV_UW-46" value="Email" style="ellipse;whiteSpace=wrap;html=1;align=center;fontFamily=Helvetica;fontSize=11;fontColor=default;labelBackgroundColor=default;" parent="1" vertex="1">
          <mxGeometry x="-80.07633587786262" y="373.0864197530864" width="121.3740458015267" height="49.382716049382715" as="geometry" />
        </mxCell>
        <mxCell id="sHEva1wJQdfOUSazV_UW-48" value="Address" style="ellipse;whiteSpace=wrap;html=1;align=center;fontFamily=Helvetica;fontSize=11;fontColor=default;labelBackgroundColor=default;" parent="1" vertex="1">
          <mxGeometry x="29.160305343511425" y="323.7037037037037" width="121.3740458015267" height="49.382716049382715" as="geometry" />
        </mxCell>
        <mxCell id="sHEva1wJQdfOUSazV_UW-50" value="Password" style="ellipse;whiteSpace=wrap;html=1;align=center;fontFamily=Helvetica;fontSize=11;fontColor=default;labelBackgroundColor=default;" parent="1" vertex="1">
          <mxGeometry x="29.160305343511425" y="113.82716049382714" width="121.3740458015267" height="49.382716049382715" as="geometry" />
        </mxCell>
        <mxCell id="sHEva1wJQdfOUSazV_UW-53" value="Rating" style="ellipse;whiteSpace=wrap;html=1;align=center;fontFamily=Helvetica;fontSize=11;fontColor=default;labelBackgroundColor=default;" parent="1" vertex="1">
          <mxGeometry x="319.7709923664122" y="630.8975308641975" width="121.3740458015267" height="49.382716049382715" as="geometry" />
        </mxCell>
        <mxCell id="sHEva1wJQdfOUSazV_UW-55" value="LicenseNo" style="ellipse;whiteSpace=wrap;html=1;align=center;fontFamily=Helvetica;fontSize=11;fontColor=default;labelBackgroundColor=default;" parent="1" vertex="1">
          <mxGeometry x="416.8702290076335" y="680.2802469135802" width="121.3740458015267" height="49.382716049382715" as="geometry" />
        </mxCell>
        <mxCell id="sHEva1wJQdfOUSazV_UW-58" value="" style="edgeStyle=none;rounded=0;orthogonalLoop=1;jettySize=auto;html=1;strokeColor=default;align=center;verticalAlign=middle;fontFamily=Helvetica;fontSize=11;fontColor=default;labelBackgroundColor=default;endArrow=none;endFill=0;" parent="1" source="sHEva1wJQdfOUSazV_UW-57" target="kHbpe7xJEAqrBtz3RoCf-8" edge="1">
          <mxGeometry relative="1" as="geometry" />
        </mxCell>
        <mxCell id="sHEva1wJQdfOUSazV_UW-57" value="LicenseNo" style="ellipse;whiteSpace=wrap;html=1;align=center;fontFamily=Helvetica;fontSize=11;fontColor=default;labelBackgroundColor=default;" parent="1" vertex="1">
          <mxGeometry x="513.9694656488549" y="618.5518518518518" width="121.3740458015267" height="49.382716049382715" as="geometry" />
        </mxCell>
        <mxCell id="sHEva1wJQdfOUSazV_UW-69" value="" style="edgeStyle=none;rounded=0;orthogonalLoop=1;jettySize=auto;html=1;strokeColor=default;align=center;verticalAlign=middle;fontFamily=Helvetica;fontSize=11;fontColor=default;labelBackgroundColor=default;endArrow=none;endFill=0;" parent="1" source="sHEva1wJQdfOUSazV_UW-59" target="sHEva1wJQdfOUSazV_UW-68" edge="1">
          <mxGeometry relative="1" as="geometry" />
        </mxCell>
        <mxCell id="sHEva1wJQdfOUSazV_UW-59" value="Have" style="shape=rhombus;perimeter=rhombusPerimeter;whiteSpace=wrap;html=1;align=center;" parent="1" vertex="1">
          <mxGeometry x="404.73282442748086" y="-203.08641975308643" width="145.64885496183206" height="74.07407407407408" as="geometry" />
        </mxCell>
        <mxCell id="sHEva1wJQdfOUSazV_UW-72" value="" style="edgeStyle=none;rounded=0;orthogonalLoop=1;jettySize=auto;html=1;strokeColor=default;align=center;verticalAlign=middle;fontFamily=Helvetica;fontSize=11;fontColor=default;labelBackgroundColor=default;endArrow=none;endFill=0;" parent="1" source="sHEva1wJQdfOUSazV_UW-66" target="sHEva1wJQdfOUSazV_UW-68" edge="1">
          <mxGeometry relative="1" as="geometry" />
        </mxCell>
        <mxCell id="sHEva1wJQdfOUSazV_UW-66" value="Name" style="ellipse;whiteSpace=wrap;html=1;align=center;fontFamily=Helvetica;fontSize=11;fontColor=default;labelBackgroundColor=default;" parent="1" vertex="1">
          <mxGeometry x="465.41984732824426" y="-450" width="121.3740458015267" height="49.382716049382715" as="geometry" />
        </mxCell>
        <mxCell id="sHEva1wJQdfOUSazV_UW-120" style="edgeStyle=none;rounded=0;orthogonalLoop=1;jettySize=auto;html=1;entryX=0.018;entryY=0.694;entryDx=0;entryDy=0;strokeColor=default;align=center;verticalAlign=middle;fontFamily=Helvetica;fontSize=11;fontColor=default;labelBackgroundColor=default;endArrow=none;endFill=0;entryPerimeter=0;" parent="1" source="sHEva1wJQdfOUSazV_UW-68" target="sHEva1wJQdfOUSazV_UW-119" edge="1">
          <mxGeometry relative="1" as="geometry" />
        </mxCell>
        <mxCell id="sHEva1wJQdfOUSazV_UW-68" value="Favorite Locations" style="shape=ext;margin=3;double=1;whiteSpace=wrap;html=1;align=center;fontFamily=Helvetica;fontSize=11;fontColor=default;labelBackgroundColor=default;" parent="1" vertex="1">
          <mxGeometry x="416.8702290076335" y="-351.2345679012346" width="121.3740458015267" height="49.382716049382715" as="geometry" />
        </mxCell>
        <mxCell id="sHEva1wJQdfOUSazV_UW-71" value="" style="edgeStyle=none;rounded=0;orthogonalLoop=1;jettySize=auto;html=1;strokeColor=default;align=center;verticalAlign=middle;fontFamily=Helvetica;fontSize=11;fontColor=default;labelBackgroundColor=default;endArrow=none;endFill=0;" parent="1" source="sHEva1wJQdfOUSazV_UW-70" target="sHEva1wJQdfOUSazV_UW-68" edge="1">
          <mxGeometry relative="1" as="geometry" />
        </mxCell>
        <mxCell id="sHEva1wJQdfOUSazV_UW-70" value="&lt;b&gt;&lt;u&gt;LID&lt;/u&gt;&lt;/b&gt;" style="ellipse;whiteSpace=wrap;html=1;align=center;fontFamily=Helvetica;fontSize=11;fontColor=default;labelBackgroundColor=default;" parent="1" vertex="1">
          <mxGeometry x="331.90839694656484" y="-437.65432098765433" width="121.3740458015267" height="49.382716049382715" as="geometry" />
        </mxCell>
        <mxCell id="sHEva1wJQdfOUSazV_UW-75" value="FirstOwnedDate" style="ellipse;whiteSpace=wrap;html=1;align=center;fontFamily=Helvetica;fontSize=11;fontColor=default;labelBackgroundColor=default;" parent="1" vertex="1">
          <mxGeometry x="683.8931297709923" y="630.8975308641975" width="121.3740458015267" height="49.382716049382715" as="geometry" />
        </mxCell>
        <mxCell id="sHEva1wJQdfOUSazV_UW-77" value="Years Owned" style="ellipse;whiteSpace=wrap;html=1;align=center;dashed=1;fontFamily=Helvetica;fontSize=11;fontColor=default;labelBackgroundColor=default;" parent="1" vertex="1">
          <mxGeometry x="817.4045801526717" y="630.8975308641975" width="121.3740458015267" height="49.382716049382715" as="geometry" />
        </mxCell>
        <mxCell id="sHEva1wJQdfOUSazV_UW-83" value="" style="edgeStyle=none;rounded=0;orthogonalLoop=1;jettySize=auto;html=1;strokeColor=default;align=center;verticalAlign=middle;fontFamily=Helvetica;fontSize=11;fontColor=default;labelBackgroundColor=default;endArrow=none;endFill=0;" parent="1" source="sHEva1wJQdfOUSazV_UW-80" target="sHEva1wJQdfOUSazV_UW-26" edge="1">
          <mxGeometry relative="1" as="geometry" />
        </mxCell>
        <mxCell id="sHEva1wJQdfOUSazV_UW-80" value="Pickup Location" style="ellipse;whiteSpace=wrap;html=1;align=center;fontFamily=Helvetica;fontSize=11;fontColor=default;labelBackgroundColor=default;" parent="1" vertex="1">
          <mxGeometry x="920.0038167938931" y="-129.00827160493827" width="121.3740458015267" height="49.382716049382715" as="geometry" />
        </mxCell>
        <mxCell id="sHEva1wJQdfOUSazV_UW-85" value="" style="edgeStyle=none;rounded=0;orthogonalLoop=1;jettySize=auto;html=1;strokeColor=default;align=center;verticalAlign=middle;fontFamily=Helvetica;fontSize=11;fontColor=default;labelBackgroundColor=default;endArrow=none;endFill=0;" parent="1" source="sHEva1wJQdfOUSazV_UW-84" target="sHEva1wJQdfOUSazV_UW-26" edge="1">
          <mxGeometry relative="1" as="geometry" />
        </mxCell>
        <mxCell id="sHEva1wJQdfOUSazV_UW-84" value="Dropoff Location" style="ellipse;whiteSpace=wrap;html=1;align=center;fontFamily=Helvetica;fontSize=11;fontColor=default;labelBackgroundColor=default;" parent="1" vertex="1">
          <mxGeometry x="975.1882442748091" y="-203.08666666666667" width="121.3740458015267" height="49.382716049382715" as="geometry" />
        </mxCell>
        <mxCell id="sHEva1wJQdfOUSazV_UW-88" value="" style="edgeStyle=none;rounded=0;orthogonalLoop=1;jettySize=auto;html=1;strokeColor=default;align=center;verticalAlign=middle;fontFamily=Helvetica;fontSize=11;fontColor=default;labelBackgroundColor=default;endArrow=none;endFill=0;" parent="1" source="sHEva1wJQdfOUSazV_UW-86" target="sHEva1wJQdfOUSazV_UW-26" edge="1">
          <mxGeometry relative="1" as="geometry" />
        </mxCell>
        <mxCell id="sHEva1wJQdfOUSazV_UW-86" value="Ride Rating" style="ellipse;whiteSpace=wrap;html=1;align=center;fontFamily=Helvetica;fontSize=11;fontColor=default;labelBackgroundColor=default;" parent="1" vertex="1">
          <mxGeometry x="1181.526717557252" y="-17.90123456790127" width="121.3740458015267" height="49.382716049382715" as="geometry" />
        </mxCell>
        <mxCell id="sHEva1wJQdfOUSazV_UW-91" value="RID" style="ellipse;whiteSpace=wrap;html=1;align=center;fontFamily=Helvetica;fontSize=11;fontColor=default;labelBackgroundColor=default;fontStyle=5" parent="1" vertex="1">
          <mxGeometry x="1084.4274809160304" y="-166.04938271604942" width="121.3740458015267" height="49.382716049382715" as="geometry" />
        </mxCell>
        <mxCell id="sHEva1wJQdfOUSazV_UW-93" value="Start Time" style="ellipse;whiteSpace=wrap;html=1;align=center;fontFamily=Helvetica;fontSize=11;fontColor=default;labelBackgroundColor=default;" parent="1" vertex="1">
          <mxGeometry x="1193.6641221374045" y="-141.35802469135803" width="121.3740458015267" height="49.382716049382715" as="geometry" />
        </mxCell>
        <mxCell id="sHEva1wJQdfOUSazV_UW-94" style="edgeStyle=none;rounded=0;orthogonalLoop=1;jettySize=auto;html=1;entryX=0.24;entryY=0.875;entryDx=0;entryDy=0;entryPerimeter=0;strokeColor=default;align=center;verticalAlign=middle;fontFamily=Helvetica;fontSize=11;fontColor=default;labelBackgroundColor=default;endArrow=none;endFill=0;" parent="1" source="sHEva1wJQdfOUSazV_UW-26" target="sHEva1wJQdfOUSazV_UW-93" edge="1">
          <mxGeometry relative="1" as="geometry" />
        </mxCell>
        <mxCell id="sHEva1wJQdfOUSazV_UW-95" value="End Time" style="ellipse;whiteSpace=wrap;html=1;align=center;fontFamily=Helvetica;fontSize=11;fontColor=default;labelBackgroundColor=default;" parent="1" vertex="1">
          <mxGeometry x="1230.0763358778624" y="-79.62962962962968" width="121.3740458015267" height="49.382716049382715" as="geometry" />
        </mxCell>
        <mxCell id="sHEva1wJQdfOUSazV_UW-96" style="edgeStyle=none;rounded=0;orthogonalLoop=1;jettySize=auto;html=1;entryX=0.033;entryY=0.658;entryDx=0;entryDy=0;entryPerimeter=0;strokeColor=default;align=center;verticalAlign=middle;fontFamily=Helvetica;fontSize=11;fontColor=default;labelBackgroundColor=default;endArrow=none;endFill=0;" parent="1" source="sHEva1wJQdfOUSazV_UW-26" target="sHEva1wJQdfOUSazV_UW-95" edge="1">
          <mxGeometry relative="1" as="geometry" />
        </mxCell>
        <mxCell id="sHEva1wJQdfOUSazV_UW-97" value="Maker Name" style="ellipse;whiteSpace=wrap;html=1;align=center;fontFamily=Helvetica;fontSize=11;fontColor=default;labelBackgroundColor=default;" parent="1" vertex="1">
          <mxGeometry x="975.1908396946565" y="630.8975308641975" width="121.3740458015267" height="49.382716049382715" as="geometry" />
        </mxCell>
        <mxCell id="sHEva1wJQdfOUSazV_UW-98" style="edgeStyle=none;rounded=0;orthogonalLoop=1;jettySize=auto;html=1;entryX=0.453;entryY=1;entryDx=0;entryDy=0;entryPerimeter=0;strokeColor=default;align=center;verticalAlign=middle;fontFamily=Helvetica;fontSize=11;fontColor=default;labelBackgroundColor=default;endArrow=none;endFill=0;" parent="1" source="sHEva1wJQdfOUSazV_UW-97" target="sHEva1wJQdfOUSazV_UW-22" edge="1">
          <mxGeometry relative="1" as="geometry" />
        </mxCell>
        <mxCell id="sHEva1wJQdfOUSazV_UW-100" style="edgeStyle=none;rounded=0;orthogonalLoop=1;jettySize=auto;html=1;entryX=0.5;entryY=1;entryDx=0;entryDy=0;strokeColor=default;align=center;verticalAlign=middle;fontFamily=Helvetica;fontSize=11;fontColor=default;labelBackgroundColor=default;endArrow=none;endFill=0;" parent="1" source="sHEva1wJQdfOUSazV_UW-99" target="sHEva1wJQdfOUSazV_UW-22" edge="1">
          <mxGeometry relative="1" as="geometry" />
        </mxCell>
        <mxCell id="sHEva1wJQdfOUSazV_UW-99" value="Vehicle Number" style="ellipse;whiteSpace=wrap;html=1;align=center;fontFamily=Helvetica;fontSize=11;fontColor=default;labelBackgroundColor=default;" parent="1" vertex="1">
          <mxGeometry x="1060.1526717557251" y="680.2802469135802" width="121.3740458015267" height="49.382716049382715" as="geometry" />
        </mxCell>
        <mxCell id="sHEva1wJQdfOUSazV_UW-101" value="Color" style="ellipse;whiteSpace=wrap;html=1;align=center;fontFamily=Helvetica;fontSize=11;fontColor=default;labelBackgroundColor=default;" parent="1" vertex="1">
          <mxGeometry x="1169.389312977099" y="717.3172839506171" width="121.3740458015267" height="49.382716049382715" as="geometry" />
        </mxCell>
        <mxCell id="sHEva1wJQdfOUSazV_UW-103" value="Seating Capacity" style="ellipse;whiteSpace=wrap;html=1;align=center;fontFamily=Helvetica;fontSize=11;fontColor=default;labelBackgroundColor=default;" parent="1" vertex="1">
          <mxGeometry x="1181.526717557252" y="630.8975308641975" width="121.3740458015267" height="49.382716049382715" as="geometry" />
        </mxCell>
        <mxCell id="sHEva1wJQdfOUSazV_UW-105" value="&lt;b&gt;&lt;u&gt;CID&lt;/u&gt;&lt;/b&gt;" style="ellipse;whiteSpace=wrap;html=1;align=center;fontFamily=Helvetica;fontSize=11;fontColor=default;labelBackgroundColor=default;" parent="1" vertex="1">
          <mxGeometry x="1193.6641221374045" y="569.1691358024691" width="121.3740458015267" height="49.382716049382715" as="geometry" />
        </mxCell>
        <mxCell id="sHEva1wJQdfOUSazV_UW-116" style="edgeStyle=none;rounded=0;orthogonalLoop=1;jettySize=auto;html=1;strokeColor=default;align=center;verticalAlign=middle;fontFamily=Helvetica;fontSize=11;fontColor=default;labelBackgroundColor=default;endArrow=none;endFill=0;" parent="1" source="sHEva1wJQdfOUSazV_UW-115" target="sHEva1wJQdfOUSazV_UW-26" edge="1">
          <mxGeometry relative="1" as="geometry" />
        </mxCell>
        <mxCell id="sHEva1wJQdfOUSazV_UW-115" value="Distance" style="ellipse;whiteSpace=wrap;html=1;align=center;fontFamily=Helvetica;fontSize=11;fontColor=default;labelBackgroundColor=default;" parent="1" vertex="1">
          <mxGeometry x="1157.2519083969464" y="56.17283950617281" width="121.3740458015267" height="49.382716049382715" as="geometry" />
        </mxCell>
        <mxCell id="sHEva1wJQdfOUSazV_UW-117" value="Fare" style="ellipse;whiteSpace=wrap;html=1;align=center;dashed=1;fontFamily=Helvetica;fontSize=11;fontColor=default;labelBackgroundColor=default;" parent="1" vertex="1">
          <mxGeometry x="1278.6259541984732" y="19.135802469135797" width="121.3740458015267" height="49.382716049382715" as="geometry" />
        </mxCell>
        <mxCell id="sHEva1wJQdfOUSazV_UW-119" value="Coords" style="ellipse;whiteSpace=wrap;html=1;align=center;fontFamily=Helvetica;fontSize=11;fontColor=default;labelBackgroundColor=default;" parent="1" vertex="1">
          <mxGeometry x="586.7938931297709" y="-412.96296296296293" width="121.3740458015267" height="49.382716049382715" as="geometry" />
        </mxCell>
        <mxCell id="4ZL2Wh8XsxxKd8x57gcR-7" style="edgeStyle=none;rounded=0;orthogonalLoop=1;jettySize=auto;html=1;strokeColor=default;align=center;verticalAlign=middle;fontFamily=Helvetica;fontSize=11;fontColor=default;labelBackgroundColor=default;endArrow=none;endFill=0;exitX=1;exitY=0.5;exitDx=0;exitDy=0;" edge="1" parent="1" source="4ZL2Wh8XsxxKd8x57gcR-5" target="sHEva1wJQdfOUSazV_UW-26">
          <mxGeometry relative="1" as="geometry" />
        </mxCell>
        <mxCell id="4ZL2Wh8XsxxKd8x57gcR-11" value="1" style="edgeLabel;html=1;align=center;verticalAlign=middle;resizable=0;points=[];fontFamily=Helvetica;fontSize=11;fontColor=default;labelBackgroundColor=default;" vertex="1" connectable="0" parent="4ZL2Wh8XsxxKd8x57gcR-7">
          <mxGeometry x="-0.7729" y="1" relative="1" as="geometry">
            <mxPoint as="offset" />
          </mxGeometry>
        </mxCell>
        <mxCell id="4ZL2Wh8XsxxKd8x57gcR-5" value="Rates" style="shape=rhombus;perimeter=rhombusPerimeter;whiteSpace=wrap;html=1;align=center;" vertex="1" parent="1">
          <mxGeometry x="704.002748091603" y="89.1344444444444" width="145.64885496183206" height="74.07407407407408" as="geometry" />
        </mxCell>
        <mxCell id="4ZL2Wh8XsxxKd8x57gcR-14" style="edgeStyle=none;rounded=0;orthogonalLoop=1;jettySize=auto;html=1;entryX=0.5;entryY=0;entryDx=0;entryDy=0;strokeColor=default;align=center;verticalAlign=middle;fontFamily=Helvetica;fontSize=11;fontColor=default;labelBackgroundColor=default;endArrow=none;endFill=0;exitX=0.5;exitY=1;exitDx=0;exitDy=0;" edge="1" parent="1" source="4ZL2Wh8XsxxKd8x57gcR-12" target="kHbpe7xJEAqrBtz3RoCf-8">
          <mxGeometry relative="1" as="geometry" />
        </mxCell>
        <mxCell id="4ZL2Wh8XsxxKd8x57gcR-16" value="M" style="edgeLabel;html=1;align=center;verticalAlign=middle;resizable=0;points=[];fontFamily=Helvetica;fontSize=11;fontColor=default;labelBackgroundColor=default;" vertex="1" connectable="0" parent="4ZL2Wh8XsxxKd8x57gcR-14">
          <mxGeometry x="-0.7838" relative="1" as="geometry">
            <mxPoint as="offset" />
          </mxGeometry>
        </mxCell>
        <mxCell id="4ZL2Wh8XsxxKd8x57gcR-12" value="Rates" style="shape=rhombus;perimeter=rhombusPerimeter;whiteSpace=wrap;html=1;align=center;" vertex="1" parent="1">
          <mxGeometry x="404.732748091603" y="240.0044444444444" width="145.64885496183206" height="74.07407407407408" as="geometry" />
        </mxCell>
      </root>
    </mxGraphModel>
  </diagram>
</mxfile>
